<svg width="40" height="40" viewBox="0 0 40 40" fill="none" xmlns="http://www.w3.org/2000/svg">
<path d="M20 28C15.5817 28 12 24.4183 12 20C12 15.5817 15.5817 12 20 12C24.4183 12 28 15.5817 28 20C28 24.4183 24.4183 28 20 28Z" fill="#4460F1"/>
<path d="M4.50163 22.7328C2.18329 23.1416 0.594202 25.3811 1.48413 27.5606C2.72659 30.6032 4.70876 33.3142 7.27851 35.4326C10.9531 38.4615 15.5877 40.08 20.3491 39.997C25.1104 39.9139 29.6859 38.1346 33.2525 34.9791C35.7467 32.7724 37.6331 29.9939 38.7687 26.9098C39.582 24.7006 37.9156 22.5179 35.5844 22.1903C33.2533 21.8627 31.1603 23.5595 30.0088 25.6128C29.3847 26.7258 28.5744 27.7355 27.6037 28.5943C25.5573 30.4048 22.9321 31.4256 20.2004 31.4734C17.4685 31.521 14.8093 30.5924 12.7011 28.8544C11.7009 28.03 10.856 27.0492 10.1933 25.9587C8.97096 23.9468 6.81996 22.324 4.50163 22.7328Z" fill="#141A34"/>
<path d="M39.8453 22.4993C39.9475 21.6805 40 20.8464 40 20C40 8.95431 31.0457 0 20 0C8.95431 0 0 8.95431 0 20C0 21.0863 0.0866 22.1523 0.25328 23.1916C1.17192 21.934 2.60568 21.0363 4.15435 20.7632C5.82993 20.4677 7.35277 20.8741 8.64036 21.6337C8.56429 21.1001 8.52493 20.5547 8.52493 20C8.52493 13.6625 13.6625 8.52493 20 8.52493C26.3375 8.52493 31.4751 13.6625 31.4751 20C31.4751 20.4179 31.4527 20.8305 31.4092 21.2368C32.6696 20.4324 34.1776 19.9728 35.8628 20.2097C37.4196 20.4285 38.8833 21.2752 39.8453 22.4993Z" fill="#4460F1"/>
</svg>
